<svg id="Layer_1" data-name="Layer 1" xmlns="http://www.w3.org/2000/svg" viewBox="0 0 562.55 393.24"><defs><style>.cls-1{fill:#fac5c0;}.cls-2{fill:#2c4251;}</style></defs><title>ANS-logo2</title><path class="cls-1" d="M476.89,136.79c2.91-14.7,17.2-21.87,27.7-22.4,10-.5,17.86,2.26,25.85,8.29,9.37,7.07,11.71,20.69,8.68,32,13.65-11,34.73-11.38,48.82-1s19.9,30.66,13.47,46.93c16.93-7,38.43,2.08,46.14,18.72s1.44,38.17-13.36,49a63.43,63.43,0,0,1,28.49,26.31c7.38,13.14,9.77,29.42,4.6,43.58s-18.89,22.14-33.5,26.58a43.54,43.54,0,0,1-8,70.3c-10.62,5.94-23.26,7.17-35.41,6.61-1.66-.08-3.51-.13-4.78.94s-1.49,2.55-1.81,4a65.31,65.31,0,0,1-89.66,45.68c-10.45-4.52-20.59-13.73-19.88-25.09Z" transform="translate(-112.49 -109.42)"/><path class="cls-2" d="M481.71,138.12c3.15-13.91,17.55-20.72,30.92-18.32,7.06,1.27,15.06,5.33,19,11.51,4.19,6.49,4.41,14.79,2.61,22.08-.94,3.79,3.66,8.48,7.34,5.65,12.69-9.76,31.54-10.84,44.34-.52,12,9.66,15.89,26.63,10.6,40.82-1.27,3.4,2.71,7.49,6.15,6.15,14.8-5.76,32.65,1,39.91,15.22,7.38,14.49,1.68,33.74-11,43.36-2.68,2-3.76,6.84,0,8.63,18.41,8.79,32.56,26.67,33.34,47.57.35,9.5-2,19.28-8.68,26.33-6.41,6.77-15.11,10.69-23.88,13.43-3.47,1.08-5,5.69-2.21,8.36,12.44,11.68,16.7,30.38,8.8,45.84-8.66,16.95-26.2,22.77-44.27,22.64-3.68,0-7.8-.78-11.13,1.21-3.76,2.24-4.31,6.36-5.37,10.23A60.44,60.44,0,0,1,523,492.6c-14.49.62-38.42-4-43.17-20.48-.73-2.52-.51-5.33-.49-8l.22-27.35.86-108.86,1-122.93c.18-22.35,1.16-44.87.53-67.21,0-.34,0-.67,0-1,.05-6.44-9.95-6.44-10,0l-.47,60.13-1,127.06-.9,114-.21,27.23c0,5.55.62,10.81,3.54,15.73,8.66,14.61,27.52,20.74,43.57,21.59a70.39,70.39,0,0,0,49.38-16.78,71.41,71.41,0,0,0,15.94-19.67,73.14,73.14,0,0,0,4.83-10.83c.67-1.9,1.24-3.83,1.74-5.78.84-3.28.47-2.78,3.86-2.69,18,.49,36.91-3.6,49-18,10.79-12.77,14.78-30.2,9.6-46.25a50.29,50.29,0,0,0-13.48-21.3l-2.21,8.36c10.36-3.24,20.72-8,28.29-16,8.08-8.55,11.68-20.09,11.64-31.73-.09-24.84-16.3-47.35-38.33-57.87v8.63c16.81-12.79,24.34-36.21,15.15-55.84-8.71-18.62-32.6-28.49-51.79-21l6.15,6.15c6.66-17.85.84-39.49-14.16-51.35-15.78-12.47-39.55-12.49-55.47-.24l7.34,5.65c2.39-9.69,1.9-20.43-3.27-29.19s-15.53-14.79-25.37-16.7c-18.46-3.57-38.85,6-43.23,25.3C470.65,141.73,480.29,144.41,481.71,138.12Z" transform="translate(-112.49 -109.42)"/><path class="cls-1" d="M602.06,198.61c-4.7,12.71-12.67,25.59-26,28.42a46.42,46.42,0,0,1-9.94.83c-8.84-.06-18.63-2-23.85-9.15" transform="translate(-112.49 -109.42)"/><path class="cls-2" d="M597.24,197.28c-3.7,9.78-9.73,21.1-20.46,24.38-9.73,3-24.3,2-31-6.49-4-5-11,2.08-7.07,7.07,8.86,11.16,27.9,12.95,40.75,9.06,14.41-4.36,22.43-18.13,27.44-31.36,2.28-6-7.38-8.63-9.64-2.66Z" transform="translate(-112.49 -109.42)"/><path class="cls-1" d="M630.48,365.73c-15.46,4.38-29.79-7.19-40.45-18.19C577.3,334.4,568,316,571.67,298.14" transform="translate(-112.49 -109.42)"/><path class="cls-2" d="M629.15,360.91c-15.27,3.8-29.09-9.36-38.33-19.89-9.84-11.22-17.14-26.34-14.33-41.55,1.16-6.29-8.47-9-9.64-2.66-3.51,19,4.49,37.14,16.9,51.28,11.9,13.56,28.91,27.23,48.06,22.46,6.24-1.55,3.6-11.2-2.66-9.64Z" transform="translate(-112.49 -109.42)"/><path class="cls-1" d="M597.52,354.91c-12-14.42-36.79-14.46-52.17-4.94a77,77,0,0,0-9.22,6.75c-6.5,5.5-16.18,24.95-14.41,33.27" transform="translate(-112.49 -109.42)"/><path class="cls-2" d="M601.05,351.37c-13.62-15.62-38.69-16.25-56.08-7a50.35,50.35,0,0,0-20.81,20.11c-4.39,7.87-8.79,17.59-7.26,26.8,1,6.33,10.69,3.65,9.64-2.66s3.61-14.45,6.57-19.65c4.05-7.11,9.66-12.09,16.91-16,13.64-7.29,33.32-6.81,44,5.39,4.24,4.86,11.29-2.24,7.07-7.07Z" transform="translate(-112.49 -109.42)"/><path class="cls-1" d="M446.89,136.79c-2.91-14.7-17.2-21.87-27.7-22.4-10-.5-17.86,2.26-25.85,8.29-9.37,7.07-11.71,20.69-8.68,32-13.65-11-34.73-11.38-48.82-1s-19.9,30.66-13.47,46.93c-16.93-7-38.43,2.08-46.14,18.72s-1.44,38.17,13.36,49a63.43,63.43,0,0,0-28.49,26.31c-7.38,13.14-9.77,29.42-4.6,43.58s18.89,22.14,33.5,26.58a43.54,43.54,0,0,0,8,70.3c10.62,5.94,23.26,7.17,35.41,6.61,1.66-.08,3.51-.13,4.78.94s1.49,2.55,1.81,4a65.31,65.31,0,0,0,89.66,45.68c10.45-4.52,20.59-13.73,19.88-25.09Z" transform="translate(-112.49 -109.42)"/><path class="cls-2" d="M451.71,135.46c-4.39-19.37-24.75-28.82-43.23-25.3-9.61,1.83-19.76,7.7-25,16.11-5.52,8.82-6.06,19.91-3.62,29.78l7.34-5.65c-15.92-12.24-39.68-12.23-55.47.24-15,11.86-20.83,33.5-14.16,51.35l6.15-6.15c-19.23-7.49-43,2.43-51.79,21-9.25,19.59-1.62,43.08,15.15,55.84v-8.63c-22.08,10.54-38.18,33-38.33,57.87-.07,11.63,3.57,23.2,11.64,31.73,7.57,8,17.93,12.77,28.29,16l-2.21-8.36a49.51,49.51,0,0,0-14.62,46.41c3.72,16.8,16.54,30.26,32.67,35.72,9,3,18.6,3.63,28,3.34,2.61-.08,2.17-.62,2.82,2,.55,2.2,1.16,4.37,1.92,6.52a73,73,0,0,0,5.2,11.48,70.19,70.19,0,0,0,91,29.34c11.59-5.46,21.1-15.68,21.05-29,0-6.56-.1-13.12-.16-19.68l-.84-106.72-1-129.82c-.19-24.28.34-48.69-.58-73,0-.38,0-.76,0-1.14-.05-6.43-10.05-6.45-10,0l.44,55.44L443.28,312l.9,114.4.26,33.37c0,2.31,0,4.62.05,6.93,0,10.61-8.52,17.66-17.72,21.47-33.38,13.82-72.33-5.84-81.46-40.62-.91-3.46-1.55-7-4.65-9.2-3.34-2.38-7.84-1.54-11.66-1.51-9.77.07-19.88-1.21-28.53-6-14.31-8-22.39-25-19-41.13a40.29,40.29,0,0,1,12.09-21.31c2.84-2.66,1.26-7.27-2.21-8.36-8.55-2.67-17-6.45-23.39-12.93-7-7.13-9.53-17-9.16-26.83.78-20.9,14.94-38.78,33.34-47.57,3.76-1.8,2.68-6.6,0-8.63-12.66-9.62-18.36-28.87-11-43.36,7.26-14.25,25.11-21,39.91-15.22,3.44,1.34,7.42-2.75,6.15-6.15-5.3-14.19-1.39-31.15,10.6-40.82,12.8-10.32,31.65-9.24,44.34.52,3.68,2.83,8.29-1.83,7.34-5.65-1.8-7.29-1.57-15.59,2.61-22.08,4-6.2,12-10.24,19-11.51,13.37-2.4,27.77,4.41,30.92,18.32C443.49,144.4,453.14,141.74,451.71,135.46Z" transform="translate(-112.49 -109.42)"/><path class="cls-1" d="M321.72,198.61c4.7,12.71,12.67,25.59,26,28.42a46.42,46.42,0,0,0,9.94.83c8.84-.06,18.63-2,23.85-9.15" transform="translate(-112.49 -109.42)"/><path class="cls-2" d="M316.9,199.94c5,13.23,13,27,27.44,31.36,12.84,3.89,31.9,2.09,40.75-9.06,4-5-3.07-12.11-7.07-7.07-6.72,8.47-21.28,9.46-31,6.49-10.73-3.28-16.75-14.6-20.46-24.38-2.26-6-11.93-3.38-9.64,2.66Z" transform="translate(-112.49 -109.42)"/><path class="cls-1" d="M293.3,365.73c15.46,4.38,29.79-7.19,40.45-18.19,12.72-13.14,22.05-31.49,18.36-49.4" transform="translate(-112.49 -109.42)"/><path class="cls-2" d="M292,370.55c19.16,4.77,36.17-8.9,48.06-22.46,12.41-14.14,20.41-32.27,16.9-51.28-1.17-6.32-10.81-3.64-9.64,2.66C350.1,314.67,342.8,329.8,333,341c-9.24,10.53-23.07,23.69-38.33,19.89-6.25-1.55-8.91,8.09-2.66,9.64Z" transform="translate(-112.49 -109.42)"/><path class="cls-1" d="M326.26,354.91c12-14.42,36.79-14.46,52.17-4.94a77,77,0,0,1,9.22,6.75c6.5,5.5,16.18,24.95,14.41,33.27" transform="translate(-112.49 -109.42)"/><path class="cls-2" d="M329.8,358.44c10.64-12.2,30.32-12.68,44-5.39,7,3.75,12.6,8.57,16.59,15.41,3.09,5.3,8,13.75,6.89,20.2-1,6.3,8.59,9,9.64,2.66,1.49-9-2.71-18.48-7-26.23a50.49,50.49,0,0,0-21.12-20.67c-17.38-9.29-42.46-8.66-56.08,7-4.21,4.83,2.83,11.93,7.07,7.07Z" transform="translate(-112.49 -109.42)"/><path class="cls-2" d="M120.4,254.91a63.73,63.73,0,0,1,18-51.9c7.22-7.23,17.22-14,27.84-13.75,10.37.25,18.83,7.55,25.25,15,6.84,8,12.36,17,20.14,24.16a77.55,77.55,0,0,0,25.75,15.2c9.86,3.63,20.29,5.44,30.73,6.39,11.77,1.08,23.68.09,35.4,1.36,24.13,2.61,39.83,25.87,45,47.74,1.11,4.7,8.34,2.71,7.23-2-4.81-20.42-17.62-40.85-37.46-49.5-10.89-4.75-22.54-4-34.15-4.27-12.94-.28-25.94-1.29-38.42-4.89-11.61-3.35-22.66-9-31.19-17.68-8.23-8.37-14-18.84-22.56-26.94-7-6.66-15.82-11.9-25.73-12.09-11-.21-21.22,5.56-29.36,12.44-17.32,14.67-26.48,38.22-24,60.7.53,4.74,8,4.8,7.5,0Z" transform="translate(-112.49 -109.42)"/><path class="cls-2" d="M152.84,360.59s.51-2.11,1.49-5.78,2.42-8.9,4.27-15.14c.92-3.12,1.91-6.5,3-10.05s2.25-7.32,3.5-11.18c2.48-7.74,5.21-16,8-24.15l4.27-12.2c1.42-4,2.86-8,4.26-11.78s2.8-7.48,4.13-11,2.6-6.76,3.8-9.79c2.38-6.05,4.47-11.06,6-14.56s2.39-5.48,2.39-5.48-.51,2.12-1.49,5.79-2.42,8.9-4.27,15.14c-.92,3.12-1.91,6.5-3,10.05s-2.25,7.32-3.5,11.18-2.53,7.86-3.89,11.9l-4.14,12.25c-2.83,8.19-5.73,16.35-8.54,24-1.39,3.82-2.8,7.48-4.13,11s-2.6,6.76-3.8,9.79c-2.38,6.05-4.47,11.06-6,14.56S152.84,360.59,152.84,360.59Z" transform="translate(-112.49 -109.42)"/><path class="cls-2" d="M182.5,268.67c-3.4,9.61-6.93,21.32-10.54,30.75-1.14,3,3.18,3,4.33,0q8.16-21.3,15.29-43c1.77-5.39,4.2-10.42,6.59-16.19.39-1,6.44-5.15,7.23-5.81,1.76-1.46,9.33-10.4,9.33-10.4,3.83-6,4.76-9.74,6-12.64a14.52,14.52,0,0,0,.9-9.39c-2.4-10.43-12.16-13-18.66-7.11-3.81,3.43-4.07,4-5.85,8.13-2.26,5.22-5.89,16.12-5.87,22.39,0,5,.7,4.21.69,11.9m14.37-14.61c-1.74,4-6.9,7.32-7.21,7.13-3.07-2-.74-10.79-.6-11.58a25.45,25.45,0,0,1,3.17-9.5c3.32-6.44,5.93-6.19,7.85-6.42,2.79-.33,5.08,4.52,3.17,8.87C210.39,216.51,207.41,220.24,206.32,222.74Z" transform="translate(-112.49 -109.42)"/><path class="cls-2" d="M328.13,290.26" transform="translate(-112.49 -109.42)"/><path class="cls-2" d="M341.09,279.7a64,64,0,0,1,4.35,9.87c1.13,3.5,2.38,13.94,2.38,13.94.69,4.75,9.38-3,9.38-3.57,0-4.38-1.81-10.57-4.26-15.68a91.37,91.37,0,0,0-7.18-12.67C325.42,244.08,339.58,276.85,341.09,279.7Z" transform="translate(-112.49 -109.42)"/></svg>